<svg xmlns="http://www.w3.org/2000/svg" width="26" height="26"><g data-name="Group 8509"><path data-name="Rectangle 2058" fill="none" d="M0 0h26v26H0z"/><g fill="#fff"><path data-name="Path 4824" d="M14.628 8.542a.424.424 0 0 0-.424-.424H9.966a.424.424 0 0 0-.424.424v3.39a.424.424 0 0 0 .424.424h4.238a.424.424 0 0 0 .424-.424Zm-.848 2.967h-3.39V8.966h3.39Z"/><path data-name="Path 4825" d="m19.487 9-1.69-.848a.423.423 0 1 0-.375.758l.644.322a.427.427 0 0 0-.039.147 1.363 1.363 0 0 0 .838 1.193v5.168a.424.424 0 1 1-.848 0v-3.39a2.25 2.25 0 0 0-1.7-2.076V7.689A1.675 1.675 0 0 0 14.647 6H9.562a1.709 1.709 0 0 0-1.715 1.689v9.485l-.613.307A.424.424 0 0 0 7 17.86v1.27a.447.447 0 0 0 .444.43h9.323a.412.412 0 0 0 .4-.43v-1.271a.424.424 0 0 0-.234-.379l-.613-.307v-6.016a1.372 1.372 0 0 1 .848 1.193v3.39a1.272 1.272 0 1 0 2.543 0V9.384A.415.415 0 0 0 19.487 9Zm-3.165 9.713H7.847v-.592l.613-.307a.424.424 0 0 0 .234-.379V7.689a.861.861 0 0 1 .868-.841h5.085a.826.826 0 0 1 .827.841v9.747a.424.424 0 0 0 .234.379l.613.307Z"/></g></g></svg>
