<svg xmlns="http://www.w3.org/2000/svg" width="26" height="26"><defs><clipPath id="a"><path data-name="Rectangle 1978" fill="#fff" d="M0 0h12v15H0z"/></clipPath></defs><g data-name="Group 8511"><path data-name="Rectangle 2056" fill="none" d="M0 0h26v26H0z"/><g data-name="Group 8294"><g data-name="Group 8293" transform="translate(7 6)" clip-path="url(#a)"><path data-name="Path 5638" d="M.357 3.209a.782.782 0 0 1-.381-.7c-.007-.345-.013-.704.005-1.059A1.133 1.133 0 0 1 .35.523L.38.5h.389l.02.008a1.231 1.231 0 0 1 .748.666 4.764 4.764 0 0 1 .277 1.142.853.853 0 0 1-.636.961.171.171 0 0 0-.043.072.138.138 0 0 0 .034.041 1.85 1.85 0 0 1 .952.875c.2.318.4.64.591.951l.4.644c.061.1.124.2.187.3.158.249.322.507.465.772.781 1.441 1.551 3.136.856 5.092l.043-.006q.5-.1 1-.207c.666-.139 1.355-.283 2.037-.41.985-.183 1.88-.329 2.735-.445a1.416 1.416 0 0 1 1.279.351 1.365 1.365 0 0 1 .225 1.262 15.4 15.4 0 0 1-.466 1.51c-.069.2-.14.4-.206.6a.473.473 0 0 1-.086.143.685.685 0 0 0-.032.043l-.033.049h-8.6l-.033-.05a1.172 1.172 0 0 0-.052-.071.724.724 0 0 1-.121-.2l-.06-.181c-.195-.587-.4-1.195-.57-1.8a1.239 1.239 0 0 1-.014-.689 1.182 1.182 0 0 0-.006-.692C1.177 9.113.669 6.928.181 4.726a1.238 1.238 0 0 1 .237-1.295.118.118 0 0 0 .03-.1.167.167 0 0 0-.092-.125M2.891 14.1a.242.242 0 0 0 .091.108c.3.012.607.011.929.009h.188q-.075-.284-.146-.564c-.146-.564-.283-1.1-.441-1.634a.555.555 0 0 0-.279-.333.614.614 0 0 0-.471-.047.64.64 0 0 0-.412.785c.185.6.363 1.148.543 1.676m-.576-3.131.021.077a1.308 1.308 0 0 1 1.719.481l.021-.1a4.594 4.594 0 0 0 .107-.6 5.535 5.535 0 0 0-.777-3.092c-.223-.427-.482-.846-.732-1.252l-.251-.409-.078-.128c-.256-.422-.52-.859-.8-1.275a3.02 3.02 0 0 0-.504-.571.252.252 0 0 0-.144-.035.473.473 0 0 0-.075.006.506.506 0 0 0-.012.18c.1.508.205 1.035.326 1.566.313 1.38.635 2.783.946 4.14ZM.769 2.6c.273-.027.324-.092.328-.1a.726.726 0 0 0 0-.565 1.377 1.377 0 0 0-.428-.667v.188c0 .364 0 .708.01 1.049a.258.258 0 0 0 .09.095m10.329 10.21a.212.212 0 0 0 .073-.029l.029-.158a2.893 2.893 0 0 0 .072-.687.274.274 0 0 0-.09-.2.472.472 0 0 0-.341-.092 13.7 13.7 0 0 0-1.6.177c-1.167.218-2.35.457-3.495.687l-1.248.25a.192.192 0 0 0-.03.01l.179.689.516-.049c.438-.041.869-.082 1.3-.125 1.061-.105 2.119-.213 3.1-.313.472-.048 1.008-.1 1.536-.165m-6.271 1.361a.073.073 0 0 0 .016.035.151.151 0 0 0 .093.02h2.4c1.065 0 2.167 0 3.25-.006a.211.211 0 0 0 .125-.065 5.69 5.69 0 0 0 .18-.522l.021-.068Z" fill="#fff"/></g></g></g></svg>
