<svg xmlns="http://www.w3.org/2000/svg" width="26" height="26"><g data-name="Group 8510"><path data-name="Rectangle 2057" fill="none" d="M0 0h26v26H0z"/><g fill="#fff"><path data-name="Path 4826" d="M6.48 16.018A2.011 2.011 0 0 0 5 17.977 1.986 1.986 0 0 0 6.942 20a1.986 1.986 0 0 0 1.942-2.023A2.011 2.011 0 0 0 7.4 16.018v-2.544h4.136v2.544a2.011 2.011 0 0 0-1.48 1.959A1.986 1.986 0 0 0 12 20a1.977 1.977 0 0 0 1.942-2.023 2.011 2.011 0 0 0-1.48-1.959v-2.544h4.594a.46.46 0 0 0 .461-.474V9.982A2.011 2.011 0 0 0 19 8.023a1.944 1.944 0 1 0-3.885 0 2.011 2.011 0 0 0 1.48 1.959v2.544h-4.134V9.982a2.011 2.011 0 0 0 1.48-1.959A1.986 1.986 0 0 0 12 6a1.977 1.977 0 0 0-1.944 2.023 2.011 2.011 0 0 0 1.48 1.959v2.544H7.4V9.982a2.011 2.011 0 0 0 1.48-1.959A1.986 1.986 0 0 0 6.942 6 1.987 1.987 0 0 0 5 8.023a2.011 2.011 0 0 0 1.48 1.959Zm6.536 1.959A1.057 1.057 0 0 1 12 19.052a1.037 1.037 0 0 1-1.017-1.074 1.019 1.019 0 1 1 2.035 0Zm3.006-9.955a1.057 1.057 0 0 1 1.018-1.074 1.037 1.037 0 0 1 1.017 1.074 1.019 1.019 0 1 1-2.035 0Zm-5.041 0A1.057 1.057 0 0 1 12 6.948a1.037 1.037 0 0 1 1.016 1.075 1.019 1.019 0 1 1-2.035 0Zm-3.006 9.955a1.057 1.057 0 0 1-1.017 1.074 1.076 1.076 0 0 1 0-2.149 1.057 1.057 0 0 1 1.017 1.075Zm-2.05-9.954a1.057 1.057 0 0 1 1.017-1.075A1.047 1.047 0 0 1 7.96 8.023 1.057 1.057 0 0 1 6.942 9.1a1.057 1.057 0 0 1-1.017-1.077Z"/><path data-name="Path 4827" d="M20.13 19.9a10.887 10.887 0 0 0-1.119-1.431 1.2 1.2 0 0 0 .95-1.173c0-1.065-.866-1.305-1.63-1.305h-1.84V19.9h.932v-1.245h.625a7.271 7.271 0 0 1 .914 1.245Zm-2.688-2.033v-1.088h.71c.565 0 .836.168.836.517 0 .409-.283.571-.818.571Z"/></g></g></svg>
